<svg width="29" height="30" viewBox="0 0 29 30" fill="none" xmlns="http://www.w3.org/2000/svg">
<rect x="5.59766" y="5.47803" width="8.12" height="8.45833" rx="1.5" fill="white"/>
<path opacity="0.3" fill-rule="evenodd" clip-rule="evenodd" d="M16.0352 6.97803C16.0352 6.1496 16.7067 5.47803 17.5352 5.47803H22.6552C23.4836 5.47803 24.1552 6.1496 24.1552 6.97803V12.4364C24.1552 13.2648 23.4836 13.9364 22.6552 13.9364H17.5352C16.7067 13.9364 16.0352 13.2648 16.0352 12.4364V6.97803ZM5.59766 17.853C5.59766 17.0246 6.26923 16.353 7.09766 16.353H12.2177C13.0461 16.353 13.7177 17.0246 13.7177 17.853V23.3114C13.7177 24.1398 13.0461 24.8114 12.2177 24.8114H7.09766C6.26923 24.8114 5.59766 24.1398 5.59766 23.3114V17.853ZM17.5352 16.353C16.7067 16.353 16.0352 17.0246 16.0352 17.853V23.3114C16.0352 24.1398 16.7067 24.8114 17.5352 24.8114H22.6552C23.4836 24.8114 24.1552 24.1398 24.1552 23.3114V17.853C24.1552 17.0246 23.4836 16.353 22.6552 16.353H17.5352Z" fill="white"/>
</svg>
