<svg width="36" height="36" viewBox="0 0 36 36" fill="none" xmlns="http://www.w3.org/2000/svg">
<path d="M18.0625 0.935059L32.9385 9.52371L32.9385 26.701L18.0625 35.2897L3.18652 26.701L3.18652 9.52371L18.0625 0.935059Z" fill="#E7FF01"/>
<path d="M11.0126 17.8927C11.0126 16.4318 11.3287 15.1324 11.9608 13.9946C12.5929 12.8428 13.4708 11.9508 14.5946 11.3186C15.7324 10.6725 17.0177 10.3494 18.4505 10.3494C20.2064 10.3494 21.7095 10.8129 22.9597 11.7401C24.2099 12.6672 25.0457 13.9314 25.4671 15.5328L21.5058 15.5328C21.2108 14.9147 20.7894 14.4441 20.2415 14.121C19.7078 13.798 19.0967 13.6364 18.4084 13.6364C17.2987 13.6364 16.3997 14.0227 15.7114 14.7953C15.023 15.5679 14.6789 16.6004 14.6789 17.8927C14.6789 19.185 15.023 20.2175 15.7114 20.9901C16.3997 21.7627 17.2987 22.149 18.4084 22.149C19.0967 22.149 19.7078 21.9874 20.2415 21.6643C20.7894 21.3413 21.2108 20.8707 21.5058 20.2526L25.4671 20.2526C25.0457 21.854 24.2099 23.1182 22.9597 24.0453C21.7095 24.9584 20.2064 25.4149 18.4505 25.4149C17.0177 25.4149 15.7324 25.0989 14.5946 24.4667C13.4708 23.8206 12.5929 22.9286 11.9608 21.7908C11.3287 20.653 11.0126 19.3536 11.0126 17.8927Z" fill="#444B00"/>
</svg>
