<svg width="27" height="26" viewBox="0 0 27 26" fill="none" xmlns="http://www.w3.org/2000/svg">
<path opacity="0.3" d="M13.8394 5.46346L9.26908 10.6051C8.88723 11.0347 8.20622 11.0927 7.748 10.7347C7.28978 10.3767 7.22787 9.73828 7.60972 9.3087L13.0097 3.2337C13.4415 2.74795 14.2373 2.74795 14.6691 3.2337L20.0691 9.3087C20.4509 9.73828 20.389 10.3767 19.9308 10.7347C19.4726 11.0927 18.7916 11.0347 18.4097 10.6051L13.8394 5.46346Z" fill="white"/>
<path fill-rule="evenodd" clip-rule="evenodd" d="M6.21356 9.95679C5.48617 9.95679 5.00214 10.7087 5.30329 11.3708L8.72154 18.8863C9.20849 19.957 10.2762 20.6443 11.4524 20.6443H16.2297C17.4059 20.6443 18.4737 19.9569 18.9606 18.8861L22.378 11.3707C22.6791 10.7086 22.1951 9.95679 21.4677 9.95679H6.21356ZM15.9997 16.0316C15.9997 17.15 15.0326 18.0566 13.8397 18.0566C12.6468 18.0566 11.6797 17.15 11.6797 16.0316C11.6797 14.9132 12.6468 14.0066 13.8397 14.0066C15.0326 14.0066 15.9997 14.9132 15.9997 16.0316Z" fill="white"/>
</svg>
