<svg width="25" height="24" viewBox="0 0 25 24" fill="none" xmlns="http://www.w3.org/2000/svg">
<path fill-rule="evenodd" clip-rule="evenodd" d="M22.9816 17.9634C23.3016 18.2634 23.8252 18.0353 23.8235 17.5967L23.8069 13.2305V6.12526C23.8069 4.81721 22.6759 3.75684 21.2806 3.75684H9.49116C8.09591 3.75684 6.96484 4.81721 6.96484 6.12526V9.38184H13.8008C15.4576 9.38184 16.8008 10.725 16.8008 12.3818V15.5989H20.4595L22.9816 17.9634Z" fill="white"/>
<path opacity="0.3" fill-rule="evenodd" clip-rule="evenodd" d="M2.78516 17.8193V13.1318C2.78516 12.0963 3.68059 11.2568 4.78516 11.2568H12.7852C13.8897 11.2568 14.7852 12.0963 14.7852 13.1318V17.8193C14.7852 18.8549 13.8897 19.6943 12.7852 19.6943H4.90089L3.64524 20.821C3.32331 21.1099 2.81131 20.8814 2.81131 20.4489V18.1233C2.7941 18.0244 2.78516 17.9228 2.78516 17.8193ZM6.80078 14.5381C6.80078 14.2792 7.01065 14.0693 7.26953 14.0693H12.332C12.5909 14.0693 12.8008 14.2792 12.8008 14.5381C12.8008 14.797 12.5909 15.0068 12.332 15.0068H7.26953C7.01065 15.0068 6.80078 14.797 6.80078 14.5381ZM10.2695 15.9443C10.0106 15.9443 9.80078 16.1542 9.80078 16.4131C9.80078 16.672 10.0106 16.8818 10.2695 16.8818H12.332C12.5909 16.8818 12.8008 16.672 12.8008 16.4131C12.8008 16.1542 12.5909 15.9443 12.332 15.9443H10.2695Z" fill="white"/>
</svg>
