<svg width="24" height="24" viewBox="0 0 24 24" fill="none" xmlns="http://www.w3.org/2000/svg">
<g clip-path="url(#clip0_1_2498)">
<path d="M10.0025 19.0002V14.0002H14.0025V19.0002C14.0025 19.5502 14.4525 20.0002 15.0025 20.0002H18.0025C18.5525 20.0002 19.0025 19.5502 19.0025 19.0002V12.0002H20.7025C21.1625 12.0002 21.3825 11.4302 21.0325 11.1302L12.6725 3.60021C12.2925 3.26021 11.7125 3.26021 11.3325 3.60021L2.97254 11.1302C2.63254 11.4302 2.84254 12.0002 3.30254 12.0002H5.00254V19.0002C5.00254 19.5502 5.45254 20.0002 6.00254 20.0002H9.00254C9.55254 20.0002 10.0025 19.5502 10.0025 19.0002Z" fill="#94A3B8"/>
</g>
<defs>
<clipPath id="clip0_1_2498">
<rect width="24" height="24" fill="white"/>
</clipPath>
</defs>
</svg>
