<svg width="57" height="57" viewBox="0 0 57 57" fill="none" xmlns="http://www.w3.org/2000/svg">
<rect x="1.31875" y="0.641016" width="55.3" height="55.3" rx="27.65" fill="url(#paint0_linear_1_2823)"/>
<rect x="1.31875" y="0.641016" width="55.3" height="55.3" rx="27.65" stroke="#3ED5DD" stroke-width="0.7"/>
<path d="M39.8337 20.305L29.2926 14.3756C29.0919 14.2628 28.8471 14.2628 28.6465 14.3756L18.1053 20.305C17.8979 20.4217 17.7695 20.6412 17.7695 20.8793V30.7616C17.7695 36.9373 22.7939 41.9616 28.9695 41.9616C35.1452 41.9616 40.1695 36.9373 40.1695 30.7616V20.8793C40.1696 20.6412 40.0413 20.4218 39.8337 20.305ZM38.852 30.7616C38.852 36.2107 34.4187 40.644 28.9696 40.644C23.5205 40.644 19.0872 36.2107 19.0872 30.7616V21.2646L28.9696 15.7058L38.852 21.2646V30.7616Z" fill="white"/>
<path d="M25.3476 25.8203V27.4674H24.0299C23.666 27.4674 23.3711 27.7624 23.3711 28.1262V31.0909C23.3711 34.1787 25.8833 36.6909 28.9711 36.6909C32.0589 36.6909 34.5711 34.1787 34.5711 31.0909V28.1262C34.5711 27.7624 34.2761 27.4674 33.9123 27.4674H32.5946V25.8203C32.5946 24.8524 32.2177 23.9425 31.5333 23.2581C30.8489 22.5737 29.939 22.1968 28.9711 22.1968C26.9731 22.1968 25.3476 23.8223 25.3476 25.8203ZM33.2534 31.0909C33.2534 33.4522 31.3324 35.3732 28.9711 35.3732C26.6098 35.3732 24.6887 33.4522 24.6887 31.0909V28.785H33.2534V31.0909ZM31.277 25.8203V27.4674H26.6652V25.8203C26.6652 24.5488 27.6996 23.5144 28.9711 23.5144C29.587 23.5144 30.1661 23.7543 30.6016 24.1898C31.0371 24.6253 31.277 25.2044 31.277 25.8203Z" fill="white"/>
<path d="M28.9674 30.1025C28.6035 30.1025 28.3086 30.3976 28.3086 30.7614V32.7378C28.3086 33.1016 28.6035 33.3967 28.9674 33.3967C29.3313 33.3967 29.6262 33.1016 29.6262 32.7378V30.7614C29.6262 30.3976 29.3313 30.1025 28.9674 30.1025Z" fill="white"/>
<defs>
<linearGradient id="paint0_linear_1_2823" x1="38.0615" y1="103.291" x2="-31.8721" y2="65.2575" gradientUnits="userSpaceOnUse">
<stop stop-color="#0A767B"/>
<stop offset="1" stop-color="#00A7D6"/>
</linearGradient>
</defs>
</svg>
